<svg width="1000" height="260" viewBox="0 0 1000 260" fill="none" xmlns="http://www.w3.org/2000/svg">
<rect width="1000" height="260" fill="white"/>
<path d="M98.1401 62.474H125.494V65.388H120.606V85.222H133.014V89.546H120.606V131.752C120.606 132.629 120.857 133.193 121.358 133.444C121.859 133.695 122.455 133.82 123.144 133.82H126.152V136.734H98.1401V133.82H101.336C102.213 133.82 102.746 133.569 102.934 133.068C103.185 132.567 103.31 132.097 103.31 131.658V65.388H98.1401V62.474ZM37.8861 127.804C37.8861 126.613 38.1054 125.485 38.5441 124.42C38.9828 123.355 39.5781 122.446 40.3301 121.694C41.1448 120.879 42.0848 120.253 43.1501 119.814C44.2154 119.375 45.3434 119.156 46.5341 119.156C47.7248 119.156 48.8528 119.375 49.9181 119.814C50.9834 120.253 51.8921 120.879 52.6441 121.694C53.4588 122.446 54.0854 123.355 54.5241 124.42C54.9628 125.485 55.1821 126.613 55.1821 127.804C55.1821 129.371 54.7748 130.875 53.9601 132.316C58.4721 131.188 61.9188 129.308 64.3001 126.676C66.6814 124.044 68.4048 120.911 69.4701 117.276C70.5981 113.641 71.2248 109.662 71.3501 105.338C71.5381 100.951 71.6321 96.4707 71.6321 91.896V88.7H45.5001V84.47H71.6321V68.302H52.4561C51.2654 68.302 50.2628 68.5527 49.4481 69.054C48.6334 69.5553 48.3514 70.558 48.6021 72.062C48.8528 73.5033 48.4768 74.7567 47.4741 75.822C46.4714 76.8873 44.9674 77.42 42.9621 77.42C40.9568 77.42 39.5468 76.856 38.7321 75.728C37.9174 74.5373 37.5101 73.1273 37.5101 71.498C37.5101 69.8687 38.2308 68.3647 39.6721 66.986C41.1761 65.5447 43.4634 64.824 46.5341 64.824H89.7741V97.63C89.7741 103.521 88.5521 108.847 86.1081 113.61C83.6641 118.373 80.4681 122.446 76.5201 125.83C72.6348 129.151 68.2168 131.721 63.2661 133.538C58.3781 135.355 53.4274 136.264 48.4141 136.264C44.8421 136.264 42.1788 135.449 40.4241 133.82C38.7321 132.191 37.8861 130.185 37.8861 127.804ZM171.742 90.768H182.082V65.2H178.416V62.474H196.934V132.128C196.997 132.817 197.279 133.256 197.78 133.444C198.281 133.695 198.845 133.82 199.472 133.82H200.506C201.383 133.82 201.916 133.569 202.104 133.068C202.355 132.567 202.48 132.097 202.48 131.658V65.2H198.908V62.474H221.374V65.2H217.332V131.752C217.332 132.629 217.583 133.193 218.084 133.444C218.585 133.695 219.181 133.82 219.87 133.82H221.938V136.734H177.852V133.82H180.108C180.985 133.82 181.518 133.569 181.706 133.068C181.957 132.567 182.082 132.097 182.082 131.658V95.092H171.742V133.444H176.066V136.734H131.51V133.444H136.962V68.396H131.51V65.012H176.16V68.396H171.742V90.768ZM151.908 133.444H157.172V68.396H151.908V133.444ZM282.192 136.734H227.296V133.35C229.991 131.783 232.748 129.935 235.568 127.804C238.451 125.611 241.239 123.198 243.934 120.566C246.691 117.934 249.292 115.145 251.736 112.2C254.18 109.192 256.311 106.09 258.128 102.894C260.008 99.698 261.481 96.4707 262.546 93.212C263.674 89.9533 264.238 86.726 264.238 83.53C264.238 80.8353 264.019 78.4227 263.58 76.292C263.204 74.1613 262.546 72.3753 261.606 70.934C260.666 69.43 259.413 68.302 257.846 67.55C256.279 66.7353 254.305 66.328 251.924 66.328C248.665 66.328 246.127 66.8293 244.31 67.832C242.493 68.772 240.989 70.0253 239.798 71.592C241.615 72.0307 243.119 73.002 244.31 74.506C245.501 75.9473 246.096 77.608 246.096 79.488C246.096 80.616 245.877 81.6813 245.438 82.684C244.999 83.624 244.404 84.47 243.652 85.222C242.963 85.9113 242.117 86.4753 241.114 86.914C240.174 87.29 239.14 87.478 238.012 87.478C235.819 87.478 233.939 86.6947 232.372 85.128C230.805 83.5613 230.022 81.6813 230.022 79.488C230.022 76.9187 230.68 74.6313 231.996 72.626C233.312 70.6207 235.004 68.9287 237.072 67.55C239.14 66.1713 241.49 65.1373 244.122 64.448C246.817 63.7587 249.543 63.414 252.3 63.414C262.515 63.414 270.003 65.1687 274.766 68.678C279.529 72.1247 281.91 77.3573 281.91 84.376C281.91 88.7627 280.845 92.9613 278.714 96.972C276.583 100.92 273.137 105.087 268.374 109.474C264.301 113.234 260.541 116.242 257.094 118.498C253.71 120.691 250.921 122.415 248.728 123.668H278.62V113.61H282.192V136.734ZM320.202 117.182H291.062V113.422L322.74 63.79H338.062V113.422H344.83V117.182H338.062V133.538H344.83V136.734H312.118V133.538H320.202V117.182ZM320.202 113.422V76.01L296.044 113.422H320.202ZM385.295 63.602H455.513V90.392H435.961V82.12H384.825V78.642H435.961V67.08H385.295V63.602ZM464.067 98.758H377.399V95.28H464.067V98.758ZM452.411 123.95C455.106 123.95 456.892 124.577 457.769 125.83C458.647 127.083 459.085 128.744 459.085 130.812C459.085 131.627 458.929 132.504 458.615 133.444C458.302 134.447 457.644 135.355 456.641 136.17C455.701 137.047 454.323 137.768 452.505 138.332C450.751 138.896 448.432 139.178 445.549 139.178H390.841C387.207 139.178 385.389 137.423 385.389 133.914V121.224H437.371V111.448H385.107V107.97H455.607V121.13C454.479 120.754 453.32 120.566 452.129 120.566C450.688 120.566 449.341 120.911 448.087 121.6C446.897 122.227 445.988 123.261 445.361 124.702H403.625V133.82C403.625 134.196 403.719 134.603 403.907 135.042C404.095 135.481 404.597 135.7 405.411 135.7H442.917C444.735 135.7 445.894 135.293 446.395 134.478C446.897 133.726 447.022 132.629 446.771 131.188C446.709 130.624 446.709 129.935 446.771 129.12C446.897 128.243 447.147 127.428 447.523 126.676C447.962 125.924 448.557 125.297 449.309 124.796C450.124 124.232 451.158 123.95 452.411 123.95ZM491.891 92.084V126.77C491.891 127.397 492.079 127.961 492.455 128.462C492.831 128.963 493.427 129.183 494.241 129.12C496.059 129.057 498.001 128.807 500.069 128.368C502.137 127.867 504.237 127.303 506.367 126.676C508.498 125.987 510.566 125.266 512.571 124.514C514.639 123.762 516.551 123.073 518.305 122.446V65.2H514.639V62.474H533.157V88.888H539.737V65.2H536.165V62.474H558.631V65.2H554.589V131.752C554.589 132.629 554.84 133.193 555.341 133.444C555.843 133.695 556.438 133.82 557.127 133.82H559.195V136.734H514.075V133.82H516.331C517.209 133.82 517.741 133.569 517.929 133.068C518.18 132.567 518.305 132.097 518.305 131.658V126.394C515.987 127.209 513.449 128.086 510.691 129.026C507.934 129.966 504.989 130.812 501.855 131.564C498.785 132.379 495.526 133.037 492.079 133.538C488.695 134.102 485.217 134.384 481.645 134.384C478.951 134.384 477.071 133.663 476.005 132.222C475.003 130.781 474.501 128.838 474.501 126.394V88.606H493.301V68.302H474.125V64.824H510.409V92.084H491.891ZM533.157 132.128C533.22 132.755 533.439 133.162 533.815 133.35C534.191 133.601 534.63 133.757 535.131 133.82H537.763C538.641 133.82 539.173 133.569 539.361 133.068C539.612 132.567 539.737 132.097 539.737 131.658V93.212H533.157V132.128ZM624.995 62.474H652.349V65.388H647.461V106.936H630.165V65.388H624.995V62.474ZM585.139 67.456H579.123V64.73H603.281V78.454C603.281 83.2167 603.814 87.0707 604.879 90.016C605.945 92.9613 607.386 95.28 609.203 96.972C611.021 98.664 613.151 99.8233 615.595 100.45C618.102 101.077 620.765 101.484 623.585 101.672V105.15C620.076 105.15 616.755 104.837 613.621 104.21C610.551 103.583 607.762 102.518 605.255 101.014C602.749 99.4473 600.587 97.4107 598.769 94.904C596.952 92.3973 595.573 89.264 594.633 85.504C593.819 89.3893 592.346 92.648 590.215 95.28C588.085 97.912 585.641 100.043 582.883 101.672C580.126 103.239 577.212 104.367 574.141 105.056C571.071 105.683 568.157 105.965 565.399 105.902V102.424C569.222 102.424 572.387 101.766 574.893 100.45C577.463 99.134 579.499 97.3793 581.003 95.186C582.507 92.9927 583.573 90.486 584.199 87.666C584.826 84.7833 585.139 81.744 585.139 78.548V67.456ZM628.473 139.46V115.772H572.355V112.294H647.461V139.46H628.473ZM686.318 64.824H737.266V68.302H710.006V87.29H735.386V90.768H710.006V126.958C710.006 127.585 710.194 128.149 710.57 128.65C710.946 129.089 711.541 129.308 712.356 129.308C714.424 129.308 717.025 129.057 720.158 128.556C723.354 127.992 726.644 127.334 730.028 126.582C733.475 125.83 736.859 125.015 740.18 124.138C743.501 123.261 746.353 122.477 748.734 121.788V65.388H743.564V62.474H770.918V65.388H766.03V87.102H778.438V91.426H766.03V131.752C766.03 132.629 766.281 133.193 766.782 133.444C767.283 133.695 767.879 133.82 768.568 133.82H771.576V136.734H743.564V133.82H746.76C747.637 133.82 748.17 133.569 748.358 133.068C748.609 132.567 748.734 132.097 748.734 131.658V125.83C746.102 126.582 742.812 127.459 738.864 128.462C734.979 129.465 730.78 130.373 726.268 131.188C721.756 132.065 717.119 132.817 712.356 133.444C707.593 134.071 703.081 134.384 698.82 134.384C696.125 134.384 694.245 133.663 693.18 132.222C692.177 130.781 691.676 128.838 691.676 126.394V67.55H686.318V64.824ZM838.974 62.474H866.328V65.388H861.44V103.27H844.144V65.388H838.974V62.474ZM780.318 82.778C780.318 78.8927 780.819 75.728 781.822 73.284C782.825 70.84 784.36 68.9287 786.428 67.55C788.559 66.1713 791.253 65.2313 794.512 64.73C797.833 64.166 801.75 63.884 806.262 63.884C810.774 63.884 814.597 64.166 817.73 64.73C820.926 65.2313 823.527 66.1713 825.532 67.55C827.6 68.9287 829.073 70.84 829.95 73.284C830.89 75.728 831.36 78.8927 831.36 82.778C831.36 86.6007 830.89 89.734 829.95 92.178C829.073 94.622 827.631 96.5647 825.626 98.006C823.621 99.3847 821.02 100.325 817.824 100.826C814.628 101.327 810.774 101.578 806.262 101.578C801.75 101.578 797.865 101.327 794.606 100.826C791.347 100.325 788.653 99.3847 786.522 98.006C784.391 96.5647 782.825 94.622 781.822 92.178C780.819 89.734 780.318 86.6007 780.318 82.778ZM808.424 98.006C809.803 98.006 810.899 97.7867 811.714 97.348C812.591 96.9093 813.249 96.314 813.688 95.562C814.189 94.81 814.534 93.964 814.722 93.024C814.91 92.084 815.004 91.144 815.004 90.204V74.976C815.004 73.9733 814.91 73.002 814.722 72.062C814.534 71.122 814.189 70.276 813.688 69.524C813.249 68.772 812.591 68.1767 811.714 67.738C810.899 67.2993 809.803 67.08 808.424 67.08H803.912C802.533 67.08 801.405 67.2993 800.528 67.738C799.713 68.1767 799.055 68.772 798.554 69.524C798.053 70.276 797.708 71.122 797.52 72.062C797.332 73.002 797.238 73.9733 797.238 74.976V90.204C797.238 91.144 797.332 92.084 797.52 93.024C797.708 93.964 798.053 94.81 798.554 95.562C799.055 96.314 799.713 96.9093 800.528 97.348C801.405 97.7867 802.533 98.006 803.912 98.006H808.424ZM806.262 120.472H843.956V109.38H861.534V139.178H843.956V136.64C839.945 137.141 835.778 137.549 831.454 137.862C827.193 138.238 822.931 138.52 818.67 138.708C814.409 138.896 810.179 139.021 805.98 139.084C801.844 139.147 797.865 139.178 794.042 139.178C790.407 139.178 788.59 137.423 788.59 133.914V112.106H784.266V109.38H806.262V120.472ZM808.33 135.324C810.711 135.387 813.375 135.355 816.32 135.23C819.328 135.167 822.399 135.042 825.532 134.854C828.665 134.666 831.799 134.415 834.932 134.102C838.128 133.851 841.136 133.538 843.956 133.162V124.138H806.262V133.444C806.262 134.259 806.45 134.76 806.826 134.948C807.265 135.199 807.766 135.324 808.33 135.324ZM907.688 65.764H883.906V62.38H907.688V65.764ZM909.756 92.554H920.566V65.2H916.9V62.474H935.418V132.128C935.481 132.817 935.763 133.256 936.264 133.444C936.765 133.695 937.329 133.82 937.956 133.82H939.272C940.024 133.695 940.494 133.381 940.682 132.88C940.87 132.441 940.964 132.034 940.964 131.658V65.2H937.862V62.474H959.858V65.2H955.816V131.752C955.816 132.629 956.067 133.193 956.568 133.444C957.069 133.695 957.665 133.82 958.354 133.82H960.422V136.734H916.336V133.82H918.592C919.469 133.82 920.002 133.569 920.19 133.068C920.441 132.567 920.566 132.097 920.566 131.658V96.878H909.756V92.554ZM869.994 129.684C869.994 127.804 870.621 126.206 871.874 124.89C873.19 123.574 874.819 122.916 876.762 122.916C878.642 122.916 880.24 123.574 881.556 124.89C882.872 126.206 883.53 127.804 883.53 129.684V130.248C884.783 128.556 885.723 126.488 886.35 124.044C886.977 121.537 887.415 118.78 887.666 115.772C887.917 112.701 888.011 109.411 887.948 105.902C887.948 102.393 887.948 98.758 887.948 94.998V75.822H876.104V72.438H915.49V75.822H905.244V99.604C905.244 100.795 905.213 102.33 905.15 104.21C905.15 106.027 905.213 108.033 905.338 110.226C905.463 112.357 905.683 114.581 905.996 116.9C906.309 119.156 906.811 121.318 907.5 123.386C908.189 125.454 909.098 127.334 910.226 129.026C911.417 130.655 912.889 131.94 914.644 132.88V136.452C912.075 135.825 909.819 134.603 907.876 132.786C905.933 131.031 904.241 128.932 902.8 126.488C901.359 124.044 900.168 121.349 899.228 118.404C898.288 115.459 897.536 112.482 896.972 109.474C896.157 113.234 895.029 116.743 893.588 120.002C892.209 123.198 890.643 126.018 888.888 128.462C887.133 130.843 885.253 132.723 883.248 134.102C881.243 135.543 879.237 136.327 877.232 136.452H876.668C874.788 136.452 873.19 135.794 871.874 134.478C870.621 133.225 869.994 131.627 869.994 129.684Z" fill="black"/>
<path d="M334.875 187.472C334.587 188.264 334.239 189.032 333.831 189.776C333.447 190.496 332.931 191.132 332.283 191.684C331.659 192.236 330.879 192.68 329.943 193.016C329.031 193.352 327.891 193.52 326.523 193.52C324.147 193.52 322.143 193.256 320.511 192.728C318.903 192.224 317.595 191.42 316.587 190.316C315.603 189.188 314.895 187.76 314.463 186.032C314.031 184.304 313.815 182.216 313.815 179.768C313.815 177.68 313.947 175.748 314.211 173.972C314.475 172.172 315.039 170.624 315.903 169.328C316.791 168.008 318.063 166.976 319.719 166.232C321.399 165.488 323.655 165.116 326.487 165.116C327.351 165.116 328.119 165.2 328.791 165.368C329.487 165.512 330.087 165.692 330.591 165.908C331.119 166.124 331.539 166.352 331.851 166.592C332.187 166.808 332.427 167 332.571 167.168V165.476H333.939V172.532H332.571V170.732C332.403 170.108 332.163 169.52 331.851 168.968C331.563 168.416 331.167 167.936 330.663 167.528C330.183 167.12 329.607 166.808 328.935 166.592C328.263 166.352 327.459 166.232 326.523 166.232C325.179 166.232 324.111 166.496 323.319 167.024C322.551 167.528 321.963 168.296 321.555 169.328C321.171 170.36 320.919 171.656 320.799 173.216C320.703 174.776 320.655 176.588 320.655 178.652C320.655 181.052 320.715 183.116 320.835 184.844C320.979 186.548 321.255 187.964 321.663 189.092C322.095 190.196 322.695 191.012 323.463 191.54C324.231 192.068 325.251 192.332 326.523 192.332C328.275 192.332 329.655 191.912 330.663 191.072C331.695 190.232 332.439 188.816 332.895 186.824L334.875 187.472ZM345.592 177.464C345.592 178.304 345.316 178.976 344.764 179.48C344.236 179.96 343.48 180.2 342.496 180.2C341.392 180.2 340.588 179.888 340.084 179.264C339.58 178.64 339.328 177.956 339.328 177.212C339.328 176.372 339.568 175.652 340.048 175.052C340.552 174.452 341.212 173.972 342.028 173.612C342.844 173.228 343.78 172.952 344.836 172.784C345.916 172.616 347.032 172.532 348.184 172.532C350.2 172.532 351.844 172.784 353.116 173.288C354.412 173.768 355.42 174.392 356.14 175.16C356.884 175.904 357.388 176.72 357.652 177.608C357.94 178.472 358.084 179.288 358.084 180.056V192.08H360.172V193.196H351.244V192.08C350.452 192.632 349.528 193.016 348.472 193.232C347.44 193.448 346.324 193.556 345.124 193.556C344.116 193.556 343.168 193.412 342.28 193.124C341.416 192.836 340.648 192.428 339.976 191.9C339.328 191.372 338.812 190.748 338.428 190.028C338.044 189.284 337.852 188.468 337.852 187.58C337.852 186.956 337.912 186.38 338.032 185.852C338.152 185.324 338.368 184.844 338.68 184.412C339.016 183.98 339.448 183.596 339.976 183.26C340.528 182.9 341.236 182.576 342.1 182.288C342.988 182 343.96 181.796 345.016 181.676C346.072 181.532 347.056 181.364 347.968 181.172C348.904 180.98 349.684 180.716 350.308 180.38C350.932 180.02 351.244 179.48 351.244 178.76V177.716C351.244 177.428 351.232 177.056 351.208 176.6C351.208 176.144 351.112 175.7 350.92 175.268C350.728 174.836 350.38 174.464 349.876 174.152C349.396 173.816 348.688 173.648 347.752 173.648C347.488 173.648 347.164 173.672 346.78 173.72C346.396 173.768 346.012 173.828 345.628 173.9C345.244 173.972 344.884 174.056 344.548 174.152C344.236 174.248 344.008 174.356 343.864 174.476C344.512 174.74 344.956 175.148 345.196 175.7C345.46 176.228 345.592 176.816 345.592 177.464ZM351.244 181.208C350.908 181.544 350.464 181.82 349.912 182.036C349.384 182.252 348.832 182.492 348.256 182.756C347.776 182.972 347.308 183.2 346.852 183.44C346.42 183.68 346.036 183.98 345.7 184.34C345.364 184.7 345.1 185.144 344.908 185.672C344.716 186.2 344.62 186.848 344.62 187.616C344.62 188.096 344.656 188.6 344.728 189.128C344.824 189.632 344.992 190.1 345.232 190.532C345.496 190.94 345.856 191.276 346.312 191.54C346.768 191.804 347.368 191.936 348.112 191.936C348.424 191.936 348.76 191.888 349.12 191.792C349.48 191.72 349.816 191.588 350.128 191.396C350.44 191.204 350.704 190.964 350.92 190.676C351.136 190.388 351.244 190.028 351.244 189.596V181.208ZM373.221 164.36C373.221 163.472 373.545 162.728 374.193 162.128C373.617 162.152 373.161 162.344 372.825 162.704C372.489 163.064 372.237 163.556 372.069 164.18C371.901 164.804 371.793 165.536 371.745 166.376C371.697 167.216 371.673 168.128 371.673 169.112V172.892H374.409V174.008H371.709V192.08H374.409V193.196H362.385V192.08H364.905V174.008H362.385V172.892H364.905V171.092C364.905 169.244 365.121 167.684 365.553 166.412C366.009 165.116 366.645 164.06 367.461 163.244C368.301 162.404 369.297 161.804 370.449 161.444C371.625 161.06 372.933 160.868 374.373 160.868C375.021 160.868 375.645 160.94 376.245 161.084C376.869 161.204 377.409 161.408 377.865 161.696C378.345 161.96 378.717 162.32 378.981 162.776C379.269 163.208 379.413 163.736 379.413 164.36C379.413 164.792 379.329 165.2 379.161 165.584C378.993 165.944 378.765 166.268 378.477 166.556C378.213 166.82 377.889 167.036 377.505 167.204C377.145 167.372 376.749 167.456 376.317 167.456C375.885 167.456 375.477 167.372 375.093 167.204C374.733 167.036 374.409 166.82 374.121 166.556C373.857 166.268 373.641 165.944 373.473 165.584C373.305 165.2 373.221 164.792 373.221 164.36ZM397.759 189.02C397.543 189.524 397.243 190.052 396.859 190.604C396.475 191.132 395.971 191.612 395.347 192.044C394.723 192.476 393.955 192.824 393.043 193.088C392.131 193.376 391.027 193.52 389.731 193.52C387.475 193.52 385.615 193.244 384.151 192.692C382.687 192.164 381.535 191.444 380.695 190.532C379.879 189.596 379.303 188.528 378.967 187.328C378.655 186.104 378.499 184.82 378.499 183.476C378.499 181.1 378.763 179.192 379.291 177.752C379.843 176.312 380.587 175.208 381.523 174.44C382.459 173.648 383.563 173.132 384.835 172.892C386.131 172.652 387.523 172.532 389.011 172.532C390.859 172.532 392.395 172.796 393.619 173.324C394.867 173.828 395.863 174.572 396.607 175.556C397.351 176.516 397.879 177.692 398.191 179.084C398.503 180.476 398.671 182.036 398.695 183.764H385.339V186.32C385.339 187.52 385.435 188.516 385.627 189.308C385.843 190.076 386.143 190.688 386.527 191.144C386.935 191.624 387.427 191.948 388.003 192.116C388.603 192.308 389.287 192.404 390.055 192.404C391.495 192.404 392.731 192.056 393.763 191.36C394.795 190.664 395.527 189.62 395.959 188.228L397.759 189.02ZM388.831 173.648C388.279 173.648 387.787 173.732 387.355 173.9C386.923 174.068 386.551 174.368 386.239 174.8C385.951 175.232 385.723 175.832 385.555 176.6C385.411 177.344 385.339 178.316 385.339 179.516V182.504H391.567V179.084C391.615 177.116 391.435 175.724 391.027 174.908C390.619 174.068 389.887 173.648 388.831 173.648ZM422.504 193.196H401.48V191.9C402.512 191.3 403.568 190.592 404.648 189.776C405.752 188.936 406.82 188.012 407.852 187.004C408.908 185.996 409.904 184.928 410.84 183.8C411.776 182.648 412.592 181.46 413.288 180.236C414.008 179.012 414.572 177.776 414.98 176.528C415.412 175.28 415.628 174.044 415.628 172.82C415.628 171.788 415.544 170.864 415.376 170.048C415.232 169.232 414.98 168.548 414.62 167.996C414.26 167.42 413.78 166.988 413.18 166.7C412.58 166.388 411.824 166.232 410.912 166.232C409.664 166.232 408.692 166.424 407.996 166.808C407.3 167.168 406.724 167.648 406.268 168.248C406.964 168.416 407.54 168.788 407.996 169.364C408.452 169.916 408.68 170.552 408.68 171.272C408.68 171.704 408.596 172.112 408.428 172.496C408.26 172.856 408.032 173.18 407.744 173.468C407.48 173.732 407.156 173.948 406.772 174.116C406.412 174.26 406.016 174.332 405.584 174.332C404.744 174.332 404.024 174.032 403.424 173.432C402.824 172.832 402.524 172.112 402.524 171.272C402.524 170.288 402.776 169.412 403.28 168.644C403.784 167.876 404.432 167.228 405.224 166.7C406.016 166.172 406.916 165.776 407.924 165.512C408.956 165.248 410 165.116 411.056 165.116C414.968 165.116 417.836 165.788 419.66 167.132C421.484 168.452 422.396 170.456 422.396 173.144C422.396 174.824 421.988 176.432 421.172 177.968C420.356 179.48 419.036 181.076 417.212 182.756C415.652 184.196 414.212 185.348 412.892 186.212C411.596 187.052 410.528 187.712 409.688 188.192H421.136V184.34H422.504V193.196ZM437.061 185.708H425.901V184.268L438.033 165.26H443.901V184.268H446.493V185.708H443.901V191.972H446.493V193.196H433.965V191.972H437.061V185.708ZM437.061 184.268V169.94L427.809 184.268H437.061ZM470.437 187.472C470.149 188.264 469.801 189.032 469.393 189.776C469.009 190.496 468.493 191.132 467.845 191.684C467.221 192.236 466.441 192.68 465.505 193.016C464.593 193.352 463.453 193.52 462.085 193.52C459.709 193.52 457.705 193.256 456.073 192.728C454.465 192.224 453.157 191.42 452.149 190.316C451.165 189.188 450.457 187.76 450.025 186.032C449.593 184.304 449.377 182.216 449.377 179.768C449.377 177.68 449.509 175.748 449.773 173.972C450.037 172.172 450.601 170.624 451.465 169.328C452.353 168.008 453.625 166.976 455.281 166.232C456.961 165.488 459.217 165.116 462.049 165.116C462.913 165.116 463.681 165.2 464.353 165.368C465.049 165.512 465.649 165.692 466.153 165.908C466.681 166.124 467.101 166.352 467.413 166.592C467.749 166.808 467.989 167 468.133 167.168V165.476H469.501V172.532H468.133V170.732C467.965 170.108 467.725 169.52 467.413 168.968C467.125 168.416 466.729 167.936 466.225 167.528C465.745 167.12 465.169 166.808 464.497 166.592C463.825 166.352 463.021 166.232 462.085 166.232C460.741 166.232 459.673 166.496 458.881 167.024C458.113 167.528 457.525 168.296 457.117 169.328C456.733 170.36 456.481 171.656 456.361 173.216C456.265 174.776 456.217 176.588 456.217 178.652C456.217 181.052 456.277 183.116 456.397 184.844C456.541 186.548 456.817 187.964 457.225 189.092C457.657 190.196 458.257 191.012 459.025 191.54C459.793 192.068 460.813 192.332 462.085 192.332C463.837 192.332 465.217 191.912 466.225 191.072C467.257 190.232 468.001 188.816 468.457 186.824L470.437 187.472ZM482.487 192.08H485.007V193.196H473.127V192.08H475.647V166.376H473.127V165.26H482.487V192.08ZM495.147 177.464C495.147 178.304 494.871 178.976 494.319 179.48C493.791 179.96 493.035 180.2 492.051 180.2C490.947 180.2 490.143 179.888 489.639 179.264C489.135 178.64 488.883 177.956 488.883 177.212C488.883 176.372 489.123 175.652 489.603 175.052C490.107 174.452 490.767 173.972 491.583 173.612C492.399 173.228 493.335 172.952 494.391 172.784C495.471 172.616 496.587 172.532 497.739 172.532C499.755 172.532 501.399 172.784 502.671 173.288C503.967 173.768 504.975 174.392 505.695 175.16C506.439 175.904 506.943 176.72 507.207 177.608C507.495 178.472 507.639 179.288 507.639 180.056V192.08H509.727V193.196H500.799V192.08C500.007 192.632 499.083 193.016 498.027 193.232C496.995 193.448 495.879 193.556 494.679 193.556C493.671 193.556 492.723 193.412 491.835 193.124C490.971 192.836 490.203 192.428 489.531 191.9C488.883 191.372 488.367 190.748 487.983 190.028C487.599 189.284 487.407 188.468 487.407 187.58C487.407 186.956 487.467 186.38 487.587 185.852C487.707 185.324 487.923 184.844 488.235 184.412C488.571 183.98 489.003 183.596 489.531 183.26C490.083 182.9 490.791 182.576 491.655 182.288C492.543 182 493.515 181.796 494.571 181.676C495.627 181.532 496.611 181.364 497.523 181.172C498.459 180.98 499.239 180.716 499.863 180.38C500.487 180.02 500.799 179.48 500.799 178.76V177.716C500.799 177.428 500.787 177.056 500.763 176.6C500.763 176.144 500.667 175.7 500.475 175.268C500.283 174.836 499.935 174.464 499.431 174.152C498.951 173.816 498.243 173.648 497.307 173.648C497.043 173.648 496.719 173.672 496.335 173.72C495.951 173.768 495.567 173.828 495.183 173.9C494.799 173.972 494.439 174.056 494.103 174.152C493.791 174.248 493.563 174.356 493.419 174.476C494.067 174.74 494.511 175.148 494.751 175.7C495.015 176.228 495.147 176.816 495.147 177.464ZM500.799 181.208C500.463 181.544 500.019 181.82 499.467 182.036C498.939 182.252 498.387 182.492 497.811 182.756C497.331 182.972 496.863 183.2 496.407 183.44C495.975 183.68 495.591 183.98 495.255 184.34C494.919 184.7 494.655 185.144 494.463 185.672C494.271 186.2 494.175 186.848 494.175 187.616C494.175 188.096 494.211 188.6 494.283 189.128C494.379 189.632 494.547 190.1 494.787 190.532C495.051 190.94 495.411 191.276 495.867 191.54C496.323 191.804 496.923 191.936 497.667 191.936C497.979 191.936 498.315 191.888 498.675 191.792C499.035 191.72 499.371 191.588 499.683 191.396C499.995 191.204 500.259 190.964 500.475 190.676C500.691 190.388 500.799 190.028 500.799 189.596V181.208ZM513.415 189.164C513.463 189.308 513.703 189.56 514.135 189.92C514.567 190.256 515.107 190.604 515.755 190.964C516.427 191.324 517.171 191.636 517.987 191.9C518.827 192.188 519.655 192.332 520.471 192.332C520.903 192.332 521.335 192.296 521.767 192.224C522.199 192.152 522.583 192.008 522.919 191.792C523.255 191.6 523.519 191.336 523.711 191C523.927 190.64 524.035 190.184 524.035 189.632C524.035 189.152 523.963 188.72 523.819 188.336C523.675 187.928 523.423 187.544 523.063 187.184C522.703 186.824 522.211 186.476 521.587 186.14C520.963 185.78 520.171 185.42 519.211 185.06C517.747 184.508 516.535 183.968 515.575 183.44C514.639 182.912 513.895 182.384 513.343 181.856C512.815 181.304 512.443 180.728 512.227 180.128C512.011 179.528 511.903 178.88 511.903 178.184C511.903 177.008 512.167 176.06 512.695 175.34C513.247 174.596 513.955 174.02 514.819 173.612C515.683 173.18 516.655 172.892 517.735 172.748C518.839 172.604 519.931 172.532 521.011 172.532C522.283 172.532 523.507 172.7 524.683 173.036C525.859 173.372 526.819 173.78 527.563 174.26V173.216H528.931V178.724H527.563V176.24C527.395 176.048 527.131 175.808 526.771 175.52C526.435 175.232 526.015 174.956 525.511 174.692C525.031 174.428 524.491 174.2 523.891 174.008C523.291 173.816 522.655 173.72 521.983 173.72C520.567 173.72 519.583 173.984 519.031 174.512C518.479 175.016 518.203 175.628 518.203 176.348C518.203 176.588 518.227 176.876 518.275 177.212C518.347 177.524 518.539 177.872 518.851 178.256C519.187 178.64 519.679 179.036 520.327 179.444C520.999 179.852 521.923 180.26 523.099 180.668C525.307 181.436 527.011 182.384 528.211 183.512C529.435 184.64 530.047 185.888 530.047 187.256C530.047 188.504 529.807 189.536 529.327 190.352C528.871 191.144 528.235 191.768 527.419 192.224C526.603 192.704 525.631 193.028 524.503 193.196C523.399 193.388 522.211 193.484 520.939 193.484C520.195 193.484 519.463 193.412 518.743 193.268C518.047 193.124 517.375 192.944 516.727 192.728C516.079 192.512 515.467 192.272 514.891 192.008C514.339 191.744 513.847 191.492 513.415 191.252V193.052H512.047V187.256H513.415V189.164ZM533.454 189.164C533.502 189.308 533.742 189.56 534.174 189.92C534.606 190.256 535.146 190.604 535.794 190.964C536.466 191.324 537.21 191.636 538.026 191.9C538.866 192.188 539.694 192.332 540.51 192.332C540.942 192.332 541.374 192.296 541.806 192.224C542.238 192.152 542.622 192.008 542.958 191.792C543.294 191.6 543.558 191.336 543.75 191C543.966 190.64 544.074 190.184 544.074 189.632C544.074 189.152 544.002 188.72 543.858 188.336C543.714 187.928 543.462 187.544 543.102 187.184C542.742 186.824 542.25 186.476 541.626 186.14C541.002 185.78 540.21 185.42 539.25 185.06C537.786 184.508 536.574 183.968 535.614 183.44C534.678 182.912 533.934 182.384 533.382 181.856C532.854 181.304 532.482 180.728 532.266 180.128C532.05 179.528 531.942 178.88 531.942 178.184C531.942 177.008 532.206 176.06 532.734 175.34C533.286 174.596 533.994 174.02 534.858 173.612C535.722 173.18 536.694 172.892 537.774 172.748C538.878 172.604 539.97 172.532 541.05 172.532C542.322 172.532 543.546 172.7 544.722 173.036C545.898 173.372 546.858 173.78 547.602 174.26V173.216H548.97V178.724H547.602V176.24C547.434 176.048 547.17 175.808 546.81 175.52C546.474 175.232 546.054 174.956 545.55 174.692C545.07 174.428 544.53 174.2 543.93 174.008C543.33 173.816 542.694 173.72 542.022 173.72C540.606 173.72 539.622 173.984 539.07 174.512C538.518 175.016 538.242 175.628 538.242 176.348C538.242 176.588 538.266 176.876 538.314 177.212C538.386 177.524 538.578 177.872 538.89 178.256C539.226 178.64 539.718 179.036 540.366 179.444C541.038 179.852 541.962 180.26 543.138 180.668C545.346 181.436 547.05 182.384 548.25 183.512C549.474 184.64 550.086 185.888 550.086 187.256C550.086 188.504 549.846 189.536 549.366 190.352C548.91 191.144 548.274 191.768 547.458 192.224C546.642 192.704 545.67 193.028 544.542 193.196C543.438 193.388 542.25 193.484 540.978 193.484C540.234 193.484 539.502 193.412 538.782 193.268C538.086 193.124 537.414 192.944 536.766 192.728C536.118 192.512 535.506 192.272 534.93 192.008C534.378 191.744 533.886 191.492 533.454 191.252V193.052H532.086V187.256H533.454V189.164ZM560.982 166.844C560.982 167.3 560.886 167.732 560.694 168.14C560.526 168.548 560.286 168.908 559.974 169.22C559.686 169.508 559.338 169.736 558.93 169.904C558.546 170.072 558.126 170.156 557.67 170.156C556.734 170.156 555.942 169.844 555.294 169.22C554.646 168.572 554.322 167.78 554.322 166.844C554.322 165.908 554.646 165.128 555.294 164.504C555.942 163.856 556.734 163.532 557.67 163.532C558.126 163.532 558.546 163.616 558.93 163.784C559.338 163.952 559.686 164.192 559.974 164.504C560.286 164.792 560.526 165.14 560.694 165.548C560.886 165.932 560.982 166.364 560.982 166.844ZM561.378 192.08H563.898V193.196H552.018V192.08H554.538V173.972H552.018V172.856H561.378V192.08ZM576.917 172.532C577.733 172.532 578.549 172.64 579.365 172.856C580.205 173.072 580.961 173.384 581.633 173.792C582.329 174.176 582.893 174.668 583.325 175.268C583.757 175.844 583.973 176.504 583.973 177.248C583.973 178.256 583.733 179.06 583.253 179.66C582.773 180.236 582.005 180.524 580.949 180.524C579.989 180.524 579.209 180.26 578.609 179.732C578.033 179.204 577.745 178.46 577.745 177.5C577.745 176.732 577.961 176.06 578.393 175.484C578.849 174.908 579.485 174.548 580.301 174.404C580.037 174.212 579.617 174.044 579.041 173.9C578.489 173.732 577.949 173.648 577.421 173.648C576.509 173.648 575.729 173.828 575.081 174.188C574.457 174.524 574.037 175.052 573.821 175.772C573.701 176.156 573.605 176.612 573.533 177.14C573.485 177.668 573.449 178.22 573.425 178.796C573.425 179.372 573.425 179.96 573.425 180.56C573.425 181.16 573.425 181.724 573.425 182.252C573.425 182.996 573.425 183.74 573.425 184.484C573.449 185.204 573.473 185.912 573.497 186.608C573.545 187.28 573.605 187.916 573.677 188.516C573.773 189.116 573.893 189.644 574.037 190.1C574.349 190.988 574.865 191.6 575.585 191.936C576.305 192.272 577.049 192.44 577.817 192.44C579.089 192.44 580.121 192.128 580.913 191.504C581.729 190.904 582.461 189.944 583.109 188.624L584.837 189.488C584.021 190.856 583.049 191.876 581.921 192.548C580.817 193.22 579.377 193.556 577.601 193.556C576.089 193.556 574.661 193.4 573.317 193.088C571.973 192.776 570.797 192.224 569.789 191.432C568.805 190.64 568.025 189.56 567.449 188.192C566.873 186.824 566.585 185.084 566.585 182.972C566.585 179.324 567.413 176.672 569.069 175.016C570.749 173.36 573.365 172.532 576.917 172.532ZM611.038 165.26V172.316H609.67V166.376H601.858V192.08H604.378V193.196H592.498V192.08H595.018V166.376H587.206V172.316H585.838V165.26H611.038ZM611.713 197.12C611.713 196.664 611.809 196.232 612.001 195.824C612.169 195.416 612.397 195.056 612.685 194.744C612.997 194.456 613.357 194.216 613.765 194.024C614.173 193.856 614.605 193.772 615.061 193.772C615.517 193.772 615.949 193.856 616.357 194.024C616.765 194.216 617.113 194.456 617.401 194.744C617.713 195.056 617.953 195.416 618.121 195.824C618.313 196.232 618.409 196.664 618.409 197.12C618.409 197.72 618.253 198.272 617.941 198.776C618.469 198.488 618.925 198.092 619.309 197.588C619.693 197.084 620.053 196.508 620.389 195.86L622.009 192.296L613.981 174.008H612.289V172.892H623.053V174.008H620.893L625.537 185.42L630.613 174.008H627.985V172.892H633.889V174.008H632.413L621.721 196.724C621.409 197.396 621.001 197.972 620.497 198.452C620.017 198.956 619.477 199.352 618.877 199.64C618.277 199.952 617.653 200.18 617.005 200.324C616.357 200.468 615.709 200.516 615.061 200.468C614.605 200.468 614.173 200.372 613.765 200.18C613.357 200.012 612.997 199.772 612.685 199.46C612.397 199.172 612.169 198.824 612.001 198.416C611.809 198.008 611.713 197.576 611.713 197.12ZM635.162 197.804H637.682V174.008H635.162V172.892H644.486V173.756C645.086 173.276 645.722 172.952 646.394 172.784C647.066 172.616 647.822 172.532 648.662 172.532C650.126 172.532 651.422 172.736 652.55 173.144C653.702 173.528 654.674 174.152 655.466 175.016C656.258 175.88 656.858 177.008 657.266 178.4C657.674 179.768 657.878 181.424 657.878 183.368C657.878 184.688 657.746 185.96 657.482 187.184C657.242 188.408 656.786 189.5 656.114 190.46C655.442 191.396 654.53 192.14 653.378 192.692C652.25 193.268 650.786 193.556 648.986 193.556C648.026 193.556 647.21 193.424 646.538 193.16C645.866 192.896 645.182 192.524 644.486 192.044V197.804H647.006V198.92H635.162V197.804ZM644.486 190.064C644.822 190.928 645.29 191.528 645.89 191.864C646.514 192.224 647.15 192.404 647.798 192.404C648.566 192.404 649.166 192.272 649.598 192.008C650.03 191.744 650.354 191.42 650.57 191.036C650.786 190.652 650.918 190.232 650.966 189.776C651.014 189.296 651.038 188.864 651.038 188.48V177.356C651.038 176.036 650.762 175.088 650.21 174.512C649.682 173.936 648.878 173.648 647.798 173.648C647.294 173.648 646.862 173.72 646.502 173.864C646.142 174.008 645.83 174.188 645.566 174.404C645.326 174.596 645.11 174.812 644.918 175.052C644.75 175.292 644.606 175.508 644.486 175.7V190.064ZM680.38 189.02C680.164 189.524 679.864 190.052 679.48 190.604C679.096 191.132 678.592 191.612 677.968 192.044C677.344 192.476 676.576 192.824 675.664 193.088C674.752 193.376 673.648 193.52 672.352 193.52C670.096 193.52 668.236 193.244 666.772 192.692C665.308 192.164 664.156 191.444 663.316 190.532C662.5 189.596 661.924 188.528 661.588 187.328C661.276 186.104 661.12 184.82 661.12 183.476C661.12 181.1 661.384 179.192 661.912 177.752C662.464 176.312 663.208 175.208 664.144 174.44C665.08 173.648 666.184 173.132 667.456 172.892C668.752 172.652 670.144 172.532 671.632 172.532C673.48 172.532 675.016 172.796 676.24 173.324C677.488 173.828 678.484 174.572 679.228 175.556C679.972 176.516 680.5 177.692 680.812 179.084C681.124 180.476 681.292 182.036 681.316 183.764H667.96V186.32C667.96 187.52 668.056 188.516 668.248 189.308C668.464 190.076 668.764 190.688 669.148 191.144C669.556 191.624 670.048 191.948 670.624 192.116C671.224 192.308 671.908 192.404 672.676 192.404C674.116 192.404 675.352 192.056 676.384 191.36C677.416 190.664 678.148 189.62 678.58 188.228L680.38 189.02ZM671.452 173.648C670.9 173.648 670.408 173.732 669.976 173.9C669.544 174.068 669.172 174.368 668.86 174.8C668.572 175.232 668.344 175.832 668.176 176.6C668.032 177.344 667.96 178.316 667.96 179.516V182.504H674.188V179.084C674.236 177.116 674.056 175.724 673.648 174.908C673.24 174.068 672.508 173.648 671.452 173.648Z" fill="black"/>
</svg>
